<svg width="830" height="476" viewBox="0 0 830 476" fill="none" xmlns="http://www.w3.org/2000/svg">
<rect x="1" y="1" width="828" height="474" rx="9" stroke="#6AD5FF" stroke-width="2"/>
<line x1="2" y1="77.7" x2="828" y2="77.7" stroke="#6AD5FF" stroke-width="2"/>
<line x1="2" y1="157.35" x2="828" y2="157.35" stroke="#6AD5FF" stroke-width="2"/>
<line x1="2" y1="237" x2="828" y2="237" stroke="#6AD5FF" stroke-width="2"/>
<line x1="2" y1="316.65" x2="828" y2="316.65" stroke="#6AD5FF" stroke-width="2"/>
<line x1="2" y1="396.3" x2="828" y2="396.3" stroke="#6AD5FF" stroke-width="2"/>
<path d="M241.891 332.024C241.68 333.481 242.689 334.846 244.144 335.072C245.599 335.298 246.95 334.3 247.161 332.843C247.372 331.385 246.364 330.02 244.908 329.794C243.453 329.568 242.102 330.566 241.891 332.024ZM130.524 315.228L244.455 332.928L244.598 331.938L130.667 314.238L130.524 315.228Z" fill="#006892"/>
<path d="M266.903 290.722L263.688 288.235L261.18 291.478L264.395 293.965L266.903 290.722ZM130.234 309.296L264.103 291.596L263.98 290.604L130.111 308.304L130.234 309.296Z" fill="#006892"/>
<path d="M380.859 291.1L377.972 288.213L375.086 291.1L377.972 293.987L380.859 291.1ZM264.041 291.6H377.972V290.6H264.041V291.6Z" fill="#006892"/>
<path d="M494.44 227.771L490.598 226.575L489.367 230.529L493.209 231.725L494.44 227.771ZM378.198 291.546L492.13 229.596L491.677 228.704L377.746 290.654L378.198 291.546Z" fill="#006892"/>
<path d="M611.151 156.853L607.262 155.837L606.214 159.847L610.103 160.863L611.151 156.853ZM492.149 229.585L608.929 158.785L608.437 157.915L491.657 228.715L492.149 229.585Z" fill="#006892"/>
<path d="M739.256 71.1974L735.33 70.3489L734.454 74.4026L738.38 75.251L739.256 71.1974ZM608.947 158.775L737.119 73.2245L736.591 72.3754L608.419 157.925L608.947 158.775Z" fill="#006892"/>
<path d="M354.977 315.142C355.188 316.6 356.539 317.598 357.994 317.372C359.449 317.146 360.458 315.781 360.247 314.324C360.036 312.866 358.685 311.868 357.229 312.094C355.774 312.32 354.766 313.685 354.977 315.142ZM243.752 332.928L357.683 315.228L357.54 314.238L243.609 331.938L243.752 332.928Z" fill="#006892"/>
<path d="M480.389 300.28C480.55 301.744 481.866 302.792 483.328 302.62C484.791 302.447 485.846 301.121 485.686 299.657C485.525 298.193 484.209 297.146 482.747 297.318C481.284 297.49 480.228 298.816 480.389 300.28ZM357.768 315.216L483.092 300.466L482.983 299.472L357.659 314.222L357.768 315.216Z" fill="#006892"/>
<path d="M584.951 225.355C585.778 226.574 587.414 226.859 588.604 225.993C589.795 225.126 590.09 223.435 589.263 222.217C588.436 220.998 586.801 220.712 585.61 221.579C584.419 222.446 584.124 224.136 584.951 225.355ZM482.002 300.9L587.388 224.2L586.826 223.372L481.44 300.072L482.002 300.9Z" fill="#006892"/>
<path d="M720.071 229.036C720.01 230.507 721.154 231.753 722.625 231.817C724.097 231.882 725.338 230.742 725.399 229.27C725.459 227.799 724.316 226.553 722.844 226.489C721.373 226.424 720.131 227.564 720.071 229.036ZM588.845 223.753L722.714 229.653L722.755 228.653L588.886 222.753L588.845 223.753Z" fill="#006892"/>
</svg>
